<svg width="32" height="22" viewBox="0 0 32 22" fill="none" xmlns="http://www.w3.org/2000/svg">
<path d="M31.9857 3.18171C31.9857 3.15452 31.9857 3.11372 31.9857 3.07293C31.9857 2.97775 31.9715 2.88257 31.9429 2.80099C31.6573 1.21013 30.2008 0 28.4445 0H3.55554C1.79918 0 0.35697 1.21013 0.0571035 2.80099C0.0285448 2.88257 0.0142584 2.97775 0.0142584 3.07293C0.0142584 3.11372 0.0142724 3.14092 0.0285517 3.18171C0.0285517 3.2497 0 3.31768 0 3.38567V18.6144C0 20.4771 1.59927 22 3.55554 22H28.4445C30.4007 22 32 20.4771 32 18.6144V3.38567C32 3.31768 31.9857 3.2497 31.9857 3.18171ZM3.55554 1.69963H28.4445C29.1584 1.69963 29.7724 2.09394 30.0437 2.67861L15.9929 10.5649L1.94197 2.6922C2.24184 2.09393 2.85586 1.69963 3.55554 1.69963ZM28.4445 20.314H3.55554C2.57027 20.314 1.78492 19.5525 1.78492 18.6279V4.55501L15.5502 12.2645C15.5502 12.2645 15.5502 12.2645 15.5645 12.2645C15.6644 12.3189 15.7787 12.3461 15.8929 12.3597C15.7358 12.3325 15.7644 12.3461 15.7787 12.3461C15.8358 12.3597 15.8929 12.3597 15.9643 12.3597C15.95 12.3597 15.9786 12.3733 16.0071 12.3733C16.0357 12.3733 16.0643 12.3597 16.0928 12.3597C16.1642 12.3597 16.2213 12.3461 16.2785 12.3325C16.2642 12.3325 16.2785 12.3189 16.307 12.3189C16.4212 12.2781 16.5212 12.2237 16.6069 12.1558C16.4498 12.2509 16.4641 12.2509 16.4641 12.2509L30.2294 4.54141V18.6144C30.2294 19.5525 29.4297 20.314 28.4445 20.314Z" fill="#FFF4E2"/>
</svg>
