<svg width="27" height="27" viewBox="0 0 27 27" fill="none" xmlns="http://www.w3.org/2000/svg">
<path d="M20.9819 12.6186C21.0502 13.0561 21.4187 13.3705 21.8555 13.3705C21.8965 13.3705 21.9511 13.3705 21.992 13.3568C22.4698 13.2885 22.7974 12.8374 22.7292 12.3589C21.5689 4.7581 14.7574 4.38901 14.6892 4.38901C14.2114 4.36167 13.8019 4.74443 13.7746 5.23657C13.7473 5.72871 14.1295 6.13883 14.6209 6.1525C14.6619 6.1525 20.0401 6.43957 20.9819 12.6186ZM22.9476 4.22495C16.9688 -1.76272 11.495 0.342541 11.2766 0.424564C10.8261 0.60228 10.6077 1.12176 10.7852 1.57289C10.9626 2.02401 11.4814 2.24274 11.9318 2.06502C11.9728 2.05135 16.5319 0.301533 21.7054 5.46898C26.4693 10.24 25.077 15.0793 25.0087 15.2844C24.8586 15.7492 25.118 16.2413 25.5821 16.3917C25.664 16.419 25.7595 16.4327 25.8414 16.4327C26.21 16.4327 26.5649 16.1866 26.6741 15.8175C26.7696 15.5578 28.4896 9.77517 22.9476 4.22495ZM20.8864 24.9631C20.8045 25.0451 20.5315 25.2502 19.7807 25.2502C17.3646 25.2502 12.7372 23.2133 8.27355 18.7567C2.41759 12.892 1.09352 7.10943 2.06269 6.12515C2.6906 5.49631 4.01467 4.17028 5.25684 4.17028C5.93936 4.17028 6.59456 4.56671 7.24978 5.38694C9.13351 7.73827 8.3145 8.53116 6.96312 9.87087L6.71742 10.1169C6.37617 10.4587 6.19871 10.8961 6.19871 11.402C6.19871 12.2085 6.59457 13.6713 9.96618 17.0479C13.3378 20.4245 14.812 20.8209 15.6174 20.8209C16.1224 20.8209 16.5729 20.6432 16.9005 20.3015L17.1462 20.0554C17.8833 19.3172 18.5112 18.661 19.3166 18.661C19.9445 18.661 20.7089 19.0301 21.6235 19.7683C22.4016 20.3972 22.7974 21.0123 22.8247 21.6685C22.9066 22.9535 21.5416 24.3069 20.8864 24.9631ZM22.7292 18.4013C21.487 17.3896 20.3677 16.9112 19.3166 16.9112C17.7741 16.9112 16.7777 17.9228 15.8904 18.825L15.6037 19.0711C15.3307 19.0711 14.2251 18.8387 11.1947 15.8175C7.67294 12.2905 7.94594 11.361 7.94594 11.361L8.19165 11.1149C9.58397 9.74783 11.4814 7.8613 8.6148 4.27964C7.61833 3.03562 6.48537 2.40679 5.25684 2.40679C3.29121 2.40679 1.68048 4.00623 0.820515 4.86747C-1.71843 7.41018 1.99444 14.9563 7.03138 19.987C11.8636 24.8264 16.9142 27 19.7807 27C20.8181 27 21.5962 26.7266 22.1285 26.2071C22.9612 25.3732 24.6948 23.6371 24.5856 21.5728C24.531 20.4108 23.9031 19.3445 22.7292 18.4013Z" fill="#FFF4E2"/>
</svg>
