<svg width="23" height="24" viewBox="0 0 23 24" fill="none" xmlns="http://www.w3.org/2000/svg">
<path d="M9.64435 23.3233C9.3654 23.2792 9.02632 23.2523 8.70167 23.1739C8.1125 23.0319 7.67001 22.6621 7.33094 22.1601C7.23234 22.0131 7.13374 21.8686 7.03515 21.7217C6.70809 21.2392 6.24156 20.9943 5.67884 20.9307C5.39988 20.8988 5.11852 20.8719 4.83956 20.8743C3.74538 20.8841 2.93977 20.3723 2.39869 19.4417C1.77104 18.3617 1.9514 17.2964 2.57424 16.2801C2.74258 16.0058 2.96142 15.7634 3.15861 15.5062C3.38226 15.2148 3.51452 14.8891 3.51933 14.5144C3.52655 14.0687 3.31733 13.7503 2.93015 13.5593C2.7546 13.4736 2.56463 13.4124 2.37465 13.3634C1.31173 13.0965 0.638381 12.3985 0.263233 11.3846C-0.0325577 10.5863 -0.0926776 9.76344 0.152612 8.93814C0.448402 7.94386 1.1482 7.31448 2.06202 6.92265C2.53096 6.72183 3.02875 6.59694 3.51212 6.43041C3.71412 6.36184 3.91372 6.28592 4.1061 6.19531C4.46442 6.02878 4.70971 5.7545 4.84678 5.37246C4.92373 5.1545 5.02473 4.94144 5.13536 4.73818C5.5562 3.95941 6.22954 3.59697 7.08084 3.5186C7.60027 3.47207 8.11731 3.4084 8.61269 3.22228C9.06961 3.0484 9.37502 2.74228 9.56499 2.27453C9.74295 1.82882 9.96179 1.39046 10.2191 0.98883C10.5942 0.405979 11.1522 0.0851653 11.8471 0.0190435C12.5253 -0.0446294 13.1818 0.0508799 13.8071 0.312918C14.7137 0.690057 15.2042 1.42474 15.4375 2.3578C15.5313 2.73738 15.5866 3.12677 15.6828 3.50636C15.7766 3.8737 15.9497 4.20676 16.1878 4.50308C16.5798 4.99042 17.0776 5.23777 17.7052 5.19369C18.0323 5.17165 18.3569 5.18879 18.6672 5.31613C19.3742 5.60756 19.7517 6.15857 19.8623 6.90796C19.9225 7.30714 19.9177 7.71611 20.0042 8.10794C20.1557 8.7961 20.5669 9.30548 21.1826 9.63119C21.6708 9.88833 22.1325 10.1773 22.4788 10.6206C22.9982 11.2867 23.092 12.0459 22.9237 12.8516C22.7866 13.5079 22.5533 14.1201 22.0459 14.5854C21.6611 14.9381 21.1922 15.1364 20.704 15.2711C20.1317 15.4303 19.5497 15.5479 18.9726 15.6899C18.5229 15.8001 18.2199 16.0573 18.167 16.5544C18.1357 16.8385 18.2367 17.0687 18.4507 17.2474C18.7754 17.5193 19.1722 17.6148 19.5762 17.6589C20.9854 17.8132 22.1998 18.8956 22.51 20.2939C22.6736 21.0335 22.486 21.7192 22.1685 22.3731C21.69 23.3625 20.8868 23.8694 19.8118 23.9796C18.0347 24.1633 16.5533 23.0858 15.9738 21.5331C15.8367 21.1658 15.6996 20.796 15.5217 20.4482C15.2067 19.8384 14.7473 19.6548 14.1365 19.7968C13.8528 19.8629 13.6411 20.0466 13.4968 20.2939C13.3261 20.5878 13.177 20.8939 13.0183 21.1976C12.4604 22.2703 11.6235 22.9829 10.4355 23.2327C10.1975 23.2866 9.94736 23.2915 9.64435 23.3233ZM7.95859 8.52427C8.3169 8.52427 8.6175 8.21815 8.61269 7.8606C8.60788 7.5055 8.31209 7.21163 7.96099 7.21163C7.60989 7.21163 7.3141 7.5055 7.3117 7.8606C7.30689 8.22549 7.59787 8.52427 7.95859 8.52427ZM13.8576 7.85815C13.8552 8.23774 14.1293 8.52427 14.4972 8.52427C14.8507 8.52427 15.1441 8.23774 15.1513 7.88019C15.161 7.52264 14.858 7.21163 14.502 7.21163C14.1461 7.20918 13.86 7.49571 13.8576 7.85815Z" fill="white"/>
</svg>
