<svg width="24" height="24" viewBox="0 0 24 24" fill="none" xmlns="http://www.w3.org/2000/svg">
<path d="M19.0877 0H4.91232C2.20992 0 0 2.20992 0 4.91232V19.0886C0 21.7901 2.20992 24 4.91232 24H19.0886C21.7901 24 24.001 21.7901 24.001 19.0877V4.91232C24 2.20992 21.7891 0 19.0877 0ZM19.4669 14.7331C19.4256 14.7946 19.3718 14.8618 19.3037 14.9366L19.2989 14.9424C19.0147 15.2832 18.6941 15.6029 18.3418 15.8976C15.9072 18.1478 11.8992 20.8282 11.3702 20.4144C10.9104 20.0554 12.1277 18.2976 10.7232 18.0048C10.6253 17.9933 10.5274 17.9818 10.4304 17.9674H10.4285C6.30432 17.3818 3.17184 14.496 3.17184 11.0256C3.17184 7.13184 7.1136 3.97536 11.977 3.97536C16.8403 3.97536 20.7821 7.13184 20.7821 11.0256C20.7821 12.3869 20.3002 13.656 19.4669 14.7331Z" fill="white"/>
<path d="M6.96474 13.4141H8.72942C8.98029 13.4141 9.18538 13.2009 9.18538 12.9402V12.9006C9.18538 12.6399 8.98029 12.4267 8.72942 12.4267H7.45885V9.42306C7.45885 9.16235 7.25377 8.94922 7.0029 8.94922H6.96474C6.71387 8.94922 6.50879 9.16235 6.50879 9.42306V12.9402C6.50879 13.2009 6.71387 13.4141 6.96474 13.4141ZM17.8991 11.2104V11.1707C17.8991 10.91 17.694 10.6969 17.4431 10.6969H16.1726V9.94647H17.4431C17.694 9.94647 17.8991 9.73334 17.8991 9.47263V9.43298C17.8991 9.17226 17.694 8.95913 17.4431 8.95913H15.6784C15.4276 8.95913 15.2225 9.17226 15.2225 9.43298V12.9501C15.2225 13.2108 15.4276 13.424 15.6784 13.424H17.4431C17.694 13.424 17.8991 13.2108 17.8991 12.9501V12.9105C17.8991 12.6498 17.694 12.4366 17.4431 12.4366H16.1726V11.6862H17.4431C17.693 11.6842 17.8991 11.4711 17.8991 11.2104ZM14.5052 13.2733C14.5901 13.1851 14.6368 13.0651 14.6368 12.9402V9.42306C14.6368 9.16235 14.4317 8.94922 14.1809 8.94922H14.1427C13.8918 8.94922 13.6867 9.16235 13.6867 9.42306V11.488L12.0375 9.18911C11.9583 9.04637 11.8105 8.94922 11.6416 8.94922H11.6035C11.3526 8.94922 11.1475 9.16235 11.1475 9.42306V12.9402C11.1475 13.2009 11.3526 13.4141 11.6035 13.4141H11.6416C11.8925 13.4141 12.0976 13.2009 12.0976 12.9402V10.8367L13.7583 13.195C13.7688 13.2118 13.7793 13.2277 13.7917 13.2426C13.8375 13.307 13.8995 13.3516 13.9691 13.3784C14.0225 13.4012 14.0807 13.4141 14.1417 13.4141H14.1799C14.2543 13.4141 14.3277 13.3952 14.3926 13.3585C14.4403 13.3367 14.4785 13.307 14.5052 13.2733ZM10.0105 13.4141H10.0486C10.2995 13.4141 10.5046 13.2009 10.5046 12.9402V9.42306C10.5046 9.16235 10.2995 8.94922 10.0486 8.94922H10.0105C9.75961 8.94922 9.55453 9.16235 9.55453 9.42306V12.9402C9.55358 13.2009 9.75961 13.4141 10.0105 13.4141Z" fill="white"/>
</svg>
