<svg width="24" height="24" viewBox="0 0 24 24" fill="none" xmlns="http://www.w3.org/2000/svg">
<path d="M23.9344 7.05609C23.8782 5.78087 23.672 4.90417 23.3766 4.1445C23.0718 3.33813 22.603 2.61618 21.9887 2.01602C21.3886 1.40653 20.6619 0.932924 19.8648 0.632938C19.1008 0.33753 18.2286 0.131313 16.9534 0.0750881C15.6687 0.0141019 15.2608 0 12.0024 0C8.74392 0 8.33606 0.0141019 7.05609 0.0703264C5.78087 0.126551 4.90417 0.332952 4.14468 0.628176C3.33812 0.932924 2.61618 1.40177 2.01602 2.01602C1.40653 2.61618 0.933107 3.34289 0.632938 4.13992C0.33753 4.90417 0.131313 5.77611 0.0750881 7.05133C0.0141019 8.33607 0 8.74392 0 12.0024C0 15.2608 0.0141019 15.6687 0.0703264 16.9487C0.126551 18.2239 0.332952 19.1006 0.628359 19.8603C0.933107 20.6666 1.40653 21.3886 2.01602 21.9887C2.61618 22.5982 3.34289 23.0718 4.13992 23.3718C4.90417 23.6672 5.77611 23.8734 7.05151 23.9297C8.3313 23.9861 8.73934 24 11.9978 24C15.2563 24 15.6641 23.9861 16.9441 23.9297C18.2193 23.8734 19.096 23.6672 19.8555 23.3718C21.4684 22.7482 22.7436 21.473 23.3672 19.8603C23.6625 19.096 23.8689 18.2239 23.9251 16.9487C23.9813 15.6687 23.9954 15.2608 23.9954 12.0024C23.9954 8.74392 23.9907 8.33607 23.9344 7.05609ZM21.7732 16.8549C21.7215 18.027 21.5246 18.66 21.3606 19.0819C20.9573 20.1275 20.1275 20.9573 19.0819 21.3606C18.6599 21.5247 18.0224 21.7215 16.8549 21.773C15.589 21.8294 15.2094 21.8433 12.0071 21.8433C8.80491 21.8433 8.42049 21.8294 7.15919 21.773C5.98709 21.7215 5.35415 21.5247 4.93219 21.3606C4.41188 21.1683 3.93828 20.8635 3.55387 20.465C3.15535 20.0758 2.8506 19.607 2.6583 19.0867C2.49421 18.6647 2.29733 18.027 2.24587 16.8597C2.18946 15.5938 2.17554 15.214 2.17554 12.0117C2.17554 8.80949 2.18946 8.42507 2.24587 7.16396C2.29733 5.99185 2.49421 5.35891 2.6583 4.93695C2.8506 4.41646 3.15535 3.94304 3.55863 3.55844C3.94762 3.15993 4.41646 2.85518 4.93695 2.66306C5.35891 2.49897 5.99661 2.30209 7.16396 2.25045C8.42983 2.19422 8.80967 2.18012 12.0117 2.18012C15.2187 2.18012 15.5984 2.19422 16.8597 2.25045C18.0318 2.30209 18.6647 2.49897 19.0867 2.66306C19.607 2.85518 20.0806 3.15993 20.465 3.55844C20.8635 3.94762 21.1683 4.41646 21.3606 4.93695C21.5246 5.35891 21.7215 5.99643 21.7732 7.16396C21.8294 8.42983 21.8435 8.80949 21.8435 12.0117C21.8435 15.214 21.8294 15.589 21.7732 16.8549Z" fill="white"/>
<path d="M12.0024 5.83716C8.59875 5.83716 5.83716 8.59857 5.83716 12.0024C5.83716 15.4063 8.59875 18.1677 12.0024 18.1677C15.4063 18.1677 18.1677 15.4063 18.1677 12.0024C18.1677 8.59857 15.4063 5.83716 12.0024 5.83716ZM12.0024 16.0017C9.7943 16.0017 8.00318 14.2108 8.00318 12.0024C8.00318 9.79412 9.7943 8.00318 12.0024 8.00318C14.2108 8.00318 16.0017 9.79412 16.0017 12.0024C16.0017 14.2108 14.2108 16.0017 12.0024 16.0017Z" fill="white"/>
<path d="M19.8507 5.59336C19.8507 6.3882 19.2063 7.03268 18.4112 7.03268C17.6164 7.03268 16.9719 6.3882 16.9719 5.59336C16.9719 4.79835 17.6164 4.15405 18.4112 4.15405C19.2063 4.15405 19.8507 4.79835 19.8507 5.59336Z" fill="white"/>
</svg>
