<svg width="24" height="24" viewBox="0 0 24 24" fill="none" xmlns="http://www.w3.org/2000/svg">
<path fill-rule="evenodd" clip-rule="evenodd" d="M21.3903 4.12359C22.4182 4.40045 23.2288 5.21087 23.5055 6.239C24.0197 8.11692 23.9999 12.0313 23.9999 12.0313C23.9999 12.0313 23.9999 15.9258 23.5057 17.8039C23.2288 18.8318 22.4184 19.6424 21.3903 19.9191C19.5122 20.4135 11.9999 20.4135 11.9999 20.4135C11.9999 20.4135 4.50731 20.4135 2.60961 19.8995C1.58148 19.6227 0.771054 18.8121 0.4942 17.7841C0 15.9258 0 12.0116 0 12.0116C0 12.0116 0 8.11692 0.4942 6.239C0.770871 5.21105 1.60125 4.38067 2.60943 4.104C4.48753 3.60962 11.9998 3.60962 11.9998 3.60962C11.9998 3.60962 19.5122 3.60962 21.3903 4.12359ZM15.8552 12.0117L9.6082 15.6098V8.41372L15.8552 12.0117Z" fill="white"/>
</svg>
