<svg width="120" height="120" viewBox="0 0 120 120" fill="none" xmlns="http://www.w3.org/2000/svg">
<path fill-rule="evenodd" clip-rule="evenodd" d="M60 1.06733L1.06733 60L60 118.933L118.933 60L60 1.06733ZM0 60L60 120L120 60L60 1.04219e-06L0 60Z" fill="#C06B1B"/>
<path fill-rule="evenodd" clip-rule="evenodd" d="M84.8522 3.8724L8.66384 37.6579L42.4493 113.846L118.638 80.0607L84.8522 3.8724ZM7.66797 37.2739L42.0654 114.842L119.634 80.4447L85.2361 2.87653L7.66797 37.2739Z" fill="#C06B1B"/>
<path fill-rule="evenodd" clip-rule="evenodd" d="M49.4274 1.04594L3.44039 70.5536L72.9481 116.541L118.935 47.0329L49.4274 1.04594ZM2.39453 70.7666L73.1611 117.586L119.981 46.8199L49.2144 7.88877e-05L2.39453 70.7666Z" fill="#C06B1B"/>
</svg>
