<svg width="300" height="90" viewBox="0 0 300 90" fill="none" xmlns="http://www.w3.org/2000/svg">
<path d="M102.701 87.9421C102.701 88.7241 102.991 89.0945 103.528 89.0945V89.9999H98.6082V89.0945C99.1456 89.0945 99.4351 88.7241 99.4351 87.9421V75.9651C99.3524 75.3478 98.8149 75.0185 97.7812 74.9362V73.9484C99.2697 73.9484 100.923 73.8661 102.701 73.6191V80.6983C103.735 79.587 104.893 79.052 106.092 79.052C108.2 79.052 109.275 80.2455 109.317 82.6327V87.9421C109.317 88.7241 109.647 89.0945 110.267 89.0945V89.9999H105.389V89.0945C105.802 89.0945 106.009 88.7241 106.009 87.9421V82.7562C106.009 81.3156 105.637 80.616 104.893 80.616C104.19 80.616 103.446 81.1099 102.701 82.0976V87.9421Z" fill="#FEFEFE"/>
<path d="M117.918 83.9495C115.974 84.4434 115.023 85.3489 115.023 86.666C115.106 88.0653 115.685 88.7238 116.801 88.7238C117.215 88.7238 117.587 88.5592 117.918 88.1888V83.9495ZM116.801 79.0518C119.695 79.0518 121.184 80.2042 121.267 82.4267V88.2299C121.267 88.5181 121.391 88.6827 121.68 88.6827C121.887 88.6827 122.135 88.5592 122.342 88.3534L122.672 89.0531C122.176 89.6293 121.432 89.9586 120.481 89.9997C119.199 89.9997 118.414 89.6705 118.124 89.0119C117.587 89.6705 116.512 89.9997 114.982 89.9997C112.915 89.8351 111.84 88.8885 111.84 87.1598C111.84 85.3077 112.749 84.2376 114.569 83.9495C116.429 83.6614 117.545 83.2499 118 82.7148V81.3154C117.876 80.5334 117.67 80.1219 117.339 80.1219C117.008 80.1219 116.801 80.3276 116.719 80.7392C116.595 81.192 116.346 81.6035 115.974 81.974C115.602 82.3032 115.147 82.4679 114.61 82.4679C113.742 82.4267 113.328 82.0151 113.328 81.1096C113.328 80.5334 113.618 80.0395 114.197 79.6691C115.023 79.2575 115.892 79.0518 116.801 79.0518Z" fill="#FEFEFE"/>
<path d="M125.191 81.3974C125.109 80.78 124.571 80.4508 123.496 80.4096V79.4218C124.53 79.4218 125.357 79.3807 125.977 79.3395C126.556 79.2984 127.383 79.2161 128.458 79.0926V87.9415C128.458 88.7235 128.747 89.0939 129.408 89.0939V89.9994H124.323V89.0939C124.902 89.0939 125.191 88.6823 125.191 87.9415V81.3974ZM128.333 75.1414C128.333 76.2115 127.713 76.7466 126.432 76.7466C125.894 76.7466 125.439 76.582 125.067 76.2527C124.695 75.9646 124.53 75.553 124.53 75.1414C124.53 74.0302 125.15 73.4951 126.432 73.4951C127.713 73.4951 128.333 74.0302 128.333 75.1414Z" fill="#FEFEFE"/>
<path d="M137.556 81.233C136.646 81.6857 136.109 82.2619 135.944 82.9616V87.9417C135.944 88.7237 136.233 89.0941 136.77 89.0941V89.9996H131.809V89.0941C132.388 89.0941 132.677 88.6825 132.677 87.9417V81.3976C132.595 80.7802 132.057 80.451 131.023 80.4098V79.422C132.057 79.422 132.843 79.422 133.463 79.3809C134 79.3397 134.827 79.2162 135.944 79.0928V81.3976C136.853 79.8748 137.969 79.0928 139.334 79.0928C140.326 79.0928 140.864 79.5455 140.946 80.4921C140.946 81.3976 140.367 81.9327 139.292 82.015C138.466 82.015 137.887 81.7269 137.556 81.233Z" fill="#FEFEFE"/>
<path d="M0.0826902 7.06668L0.744212 6.98436C3.10088 6.73742 4.25855 8.13678 4.25855 9.94772V39.746C4.2172 41.7627 2.5634 43.2032 0.744212 43.2032H0.0413451L0 43.7383H12.1141V43.2032H11.4113C9.59207 43.2032 7.93826 41.7627 7.85557 39.746V7.10784C9.79879 6.77857 11.618 6.367 13.1064 6.20236C19.6389 5.50268 24.1042 8.58952 24.3523 15.6687C24.5177 20.8545 22.3677 25.135 18.1505 25.917C15.3804 26.4108 11.7007 25.4642 10.7911 22.0481L10.2949 22.2127C10.8738 26.6989 14.8016 28.1806 18.5226 27.9748C24.8484 27.5633 28.7349 22.5009 28.4868 15.6687C28.2387 7.47826 22.2023 3.40363 13.3545 4.51489C10.6257 4.84416 4.92007 5.99658 0 6.53163L0.0826902 7.06668Z" fill="#FEFEFE"/>
<path d="M45.8524 43.2025H45.1495C43.2063 43.2025 41.6352 41.6797 41.5939 39.7453V9.20617C41.6352 7.31292 43.2063 5.74892 45.1495 5.74892H45.8524V5.21387H33.7383L33.7796 5.74892H34.4411C36.3844 5.74892 37.9555 7.31292 37.9968 9.20617V39.7453C37.9555 41.6797 36.3844 43.2025 34.4411 43.2025H33.7796L33.7383 43.7376H45.8524V43.2025Z" fill="#FEFEFE"/>
<path d="M79.5466 5.21387V5.79008H80.4562C82.0273 5.79008 83.309 6.90134 83.3504 8.42418V30.1555C83.3504 37.7285 78.4303 42.7909 71.0295 42.7909C64.0008 42.7909 59.2875 37.4404 59.2875 29.4147V8.42418C59.3702 6.86018 60.6519 5.79008 62.223 5.79008H63.1326V5.21387H51.8867V5.79008H52.7963C54.3674 5.79008 55.6905 6.90134 55.7318 8.50649V30.2378C55.7318 38.7986 61.8509 44.5196 71.0295 44.5196C80.0014 44.5196 85.9551 38.7575 85.9551 30.1555V8.38302C86.0378 6.86018 87.3195 5.79008 88.8906 5.79008H89.7588V5.21387H79.5466Z" fill="#FEFEFE"/>
<path d="M147.6 4.96761H147.104L132.426 37.7292L119.237 9.33033C117.5 5.62613 112.291 -1.69996 102.988 0.357931V0.934141C109.603 0.0698268 113.49 5.7496 115.805 10.277L112.332 39.9517C112.002 42.0096 110.265 43.2032 108.363 43.2032H107.495V43.7794H118.079V43.2444H117.211C116.219 43.2855 114.978 42.2154 115.102 40.9395L117.542 13.94L131.682 44.5203H132.178C132.55 42.2566 134.08 38.9639 134.08 38.9639L145.45 13.405L148.757 37.6469C150.039 46.9074 156.199 54.7274 167.363 53.1222V52.5872C159.796 52.8753 154.256 47.2778 152.685 37.153L147.6 4.96761Z" fill="#FEFEFE"/>
<path d="M180.679 4.92676C168.276 4.92676 159.676 12.8702 159.676 24.7237C159.676 36.6183 168.276 44.5206 180.679 44.5206C193.083 44.5206 201.682 36.6183 201.682 24.7237C201.682 12.8702 193.083 4.92676 180.679 4.92676ZM180.679 42.8743C170.632 42.8743 163.934 35.6305 163.934 24.7237C163.934 13.8168 170.632 6.57307 180.679 6.57307C190.726 6.57307 197.465 13.8168 197.465 24.7237C197.465 35.6305 190.726 42.8743 180.679 42.8743Z" fill="#FEFEFE"/>
<path d="M213.174 17.8503C211.479 16.2452 210.983 14.2284 210.983 12.8291C210.983 9.49527 213.671 6.57307 217.681 6.57307C221.113 6.57307 223.883 8.67212 223.841 12.1705H224.379V5.50297H222.188C220.741 5.1737 218.963 4.92676 217.516 4.92676C211.314 4.92676 207.924 9.53643 207.924 14.1049C207.924 16.2452 208.668 18.8381 210.9 20.8548L221.361 30.5269C222.725 31.8028 223.511 33.4903 223.511 35.5893C223.511 39.9521 220.162 42.6685 216.151 42.8743C211.314 43.1624 207.758 39.5816 208.296 33.9842H207.8C206.973 36.4125 206.766 39.8697 207.179 41.5572C209.329 43.7797 213.753 44.5206 216.441 44.5206C222.725 44.5206 226.653 40.3636 226.653 34.3546C226.653 32.1732 226.115 29.7449 223.924 27.7282L213.174 17.8503Z" fill="#FEFEFE"/>
<path d="M239.182 17.8503C237.487 16.2452 236.991 14.2284 236.991 12.8291C236.991 9.49527 239.678 6.57307 243.689 6.57307C247.12 6.57307 249.849 8.67212 249.849 12.1705H250.387V5.50297H248.195C246.748 5.1737 244.971 4.92676 243.523 4.92676C237.322 4.92676 233.931 9.53643 233.931 14.1049C233.931 16.2452 234.676 18.8381 236.867 20.8548L247.369 30.5269C248.692 31.8028 249.477 33.4903 249.477 35.5893C249.477 39.9521 246.17 42.6685 242.159 42.8743C237.322 43.1624 233.766 39.5816 234.304 33.9842H233.807C232.98 36.4125 232.774 39.8697 233.187 41.5572C235.337 43.7797 239.761 44.5206 242.449 44.5206C248.733 44.5206 252.661 40.3636 252.661 34.3546C252.661 32.1732 252.123 29.7449 249.932 27.7282L239.182 17.8503Z" fill="#FEFEFE"/>
<path d="M278.997 4.92676C266.594 4.92676 258.035 12.8702 258.035 24.7237C258.035 36.6183 266.594 44.5206 278.997 44.5206C291.401 44.5206 300 36.6183 300 24.7237C300 12.8702 291.401 4.92676 278.997 4.92676ZM278.997 42.8743C268.95 42.8743 262.252 35.6305 262.252 24.7237C262.252 13.8168 268.95 6.57307 278.997 6.57307C289.085 6.57307 295.783 13.8168 295.783 24.7237C295.783 35.6305 289.085 42.8743 278.997 42.8743Z" fill="#FEFEFE"/>
<path d="M155.831 82.2209H154.591C154.466 81.2331 154.218 80.5746 153.929 80.2865C153.557 80.1219 153.102 80.0395 152.606 80.0395C151.614 80.1219 151.118 80.5746 151.035 81.4801C151.035 82.1386 151.862 82.7971 153.557 83.4145C155.5 84.0319 156.534 85.0196 156.616 86.419C156.616 88.8062 155.087 89.9997 152.068 89.9997C150.084 89.9997 148.637 89.5882 147.81 88.765V86.5013H149.092C149.298 87.6126 149.505 88.3123 149.67 88.6004C150.125 88.9296 150.745 89.0531 151.572 89.0531C152.813 89.0531 153.474 88.3946 153.474 87.1187C153.474 86.5013 153.226 86.0074 152.771 85.5958C152.317 85.2666 151.696 84.9785 150.869 84.7315C148.802 84.2788 147.727 83.4145 147.645 82.2209C147.645 81.3566 148.017 80.6569 148.761 80.0807C149.588 79.381 150.663 79.0518 151.986 79.0518C153.97 79.0929 155.252 79.5457 155.831 80.3688V82.2209Z" fill="#FEFEFE"/>
<path d="M164.428 83.9495C162.484 84.4434 161.492 85.3489 161.492 86.666C161.575 88.0653 162.154 88.7238 163.27 88.7238C163.725 88.7238 164.097 88.5592 164.428 88.1888V83.9495ZM163.27 79.0518C166.164 79.0518 167.694 80.2042 167.735 82.4267V88.2299C167.735 88.5181 167.859 88.6827 168.149 88.6827C168.397 88.6827 168.604 88.5592 168.852 88.3534L169.182 89.0531C168.645 89.6293 167.901 89.9586 166.991 89.9997C165.709 89.9997 164.882 89.6705 164.593 89.0119C164.056 89.6705 163.022 89.9997 161.492 89.9997C159.384 89.8351 158.35 88.8885 158.309 87.1598C158.309 85.3077 159.218 84.2376 161.079 83.9495C162.898 83.6614 164.056 83.2499 164.469 82.7148V81.3154C164.386 80.5334 164.138 80.1219 163.849 80.1219C163.477 80.1219 163.27 80.3276 163.187 80.7392C163.063 81.192 162.815 81.6035 162.443 81.974C162.071 82.3032 161.616 82.4679 161.079 82.4679C160.21 82.4267 159.797 82.0151 159.797 81.1096C159.797 80.5334 160.128 80.0395 160.665 79.6691C161.534 79.2575 162.402 79.0518 163.27 79.0518Z" fill="#FEFEFE"/>
<path d="M171.044 75.9651C171.003 75.3478 170.424 75.0185 169.391 74.9362V73.9484C170.879 73.9484 172.533 73.8661 174.311 73.6191V87.9421C174.311 88.7241 174.641 89.0945 175.262 89.0945V89.9999H170.218V89.0945C170.755 89.0945 171.044 88.6829 171.044 87.9421V75.9651Z" fill="#FEFEFE"/>
<path d="M182.787 80.2865C181.257 80.2865 180.472 81.6859 180.472 84.4846C180.513 87.3656 181.299 88.8062 182.87 88.8062C184.399 88.8062 185.144 87.3656 185.144 84.5257C185.144 81.6859 184.358 80.2865 182.787 80.2865ZM182.828 79.0518C186.591 79.0518 188.451 80.9039 188.451 84.5669C188.451 88.1888 186.591 89.9997 182.828 89.9997C179.025 89.9997 177.164 88.1888 177.164 84.5669C177.164 80.9039 179.025 79.0518 182.828 79.0518Z" fill="#FEFEFE"/>
<path d="M194.651 87.9418C194.651 88.7238 194.94 89.0943 195.519 89.0943V89.9997H190.557V89.0943C191.095 89.0943 191.384 88.6827 191.384 87.9418V81.3978C191.343 80.7804 190.764 80.4511 189.73 80.41V79.4222C190.764 79.4222 191.591 79.4222 192.17 79.381C192.749 79.3399 193.576 79.2164 194.651 79.0929V80.6981C195.726 79.5868 196.925 79.0518 198.289 79.0518C200.232 79.0518 201.266 80.2453 201.307 82.6325V87.9418C201.307 88.7238 201.597 89.0943 202.217 89.0943V89.9997H197.255V89.0943C197.751 89.0943 197.999 88.7238 197.999 87.9418V82.7148C197.999 81.3154 197.627 80.6158 196.842 80.6158C196.18 80.6158 195.436 81.1096 194.651 82.0974V87.9418Z" fill="#FEFEFE"/>
</svg>
