<svg width="837" height="253" viewBox="0 0 837 253" fill="none" xmlns="http://www.w3.org/2000/svg">
<path d="M286.519 246.46C286.519 248.651 287.326 249.689 288.826 249.689V252.227H275.099V249.689C276.599 249.689 277.406 248.651 277.406 246.46V212.894C277.176 211.164 275.676 210.241 272.792 210.01V207.242C276.945 207.242 281.559 207.011 286.519 206.319V226.159C289.402 223.045 292.632 221.545 295.977 221.545C301.86 221.545 304.859 224.89 304.974 231.58V246.46C304.974 248.651 305.897 249.689 307.627 249.689V252.227H294.016V249.689C295.17 249.689 295.746 248.651 295.746 246.46V231.926C295.746 227.889 294.708 225.928 292.632 225.928C290.671 225.928 288.595 227.312 286.519 230.081V246.46Z" fill="#FEFEFE"/>
<path d="M328.968 235.272C323.547 236.656 320.894 239.194 320.894 242.885C321.124 246.806 322.739 248.652 325.854 248.652C327.007 248.652 328.045 248.191 328.968 247.153V235.272ZM325.854 221.546C333.928 221.546 338.08 224.775 338.311 231.004V247.268C338.311 248.075 338.657 248.537 339.464 248.537C340.041 248.537 340.733 248.191 341.31 247.614L342.233 249.575C340.849 251.19 338.772 252.112 336.119 252.228C332.544 252.228 330.352 251.305 329.545 249.459C328.045 251.305 325.046 252.228 320.778 252.228C315.011 251.766 312.012 249.113 312.012 244.269C312.012 239.078 314.55 236.079 319.625 235.272C324.815 234.464 327.93 233.311 329.199 231.811V227.89C328.853 225.698 328.276 224.545 327.353 224.545C326.43 224.545 325.854 225.121 325.623 226.275C325.277 227.544 324.585 228.697 323.547 229.735C322.508 230.658 321.24 231.119 319.74 231.119C317.318 231.004 316.164 229.851 316.164 227.313C316.164 225.698 316.972 224.314 318.587 223.276C320.894 222.122 323.316 221.546 325.854 221.546Z" fill="#FEFEFE"/>
<path d="M349.267 228.119C349.036 226.389 347.537 225.466 344.538 225.351V222.583C347.421 222.583 349.728 222.467 351.458 222.352C353.073 222.237 355.38 222.006 358.379 221.66V246.459C358.379 248.651 359.187 249.689 361.032 249.689V252.227H346.845V249.689C348.459 249.689 349.267 248.536 349.267 246.459V228.119ZM358.033 210.587C358.033 213.586 356.303 215.085 352.727 215.085C351.228 215.085 349.959 214.624 348.921 213.701C347.883 212.894 347.421 211.74 347.421 210.587C347.421 207.472 349.151 205.973 352.727 205.973C356.303 205.973 358.033 207.472 358.033 210.587Z" fill="#FEFEFE"/>
<path d="M383.756 227.659C381.218 228.928 379.719 230.543 379.257 232.504V246.461C379.257 248.652 380.065 249.69 381.564 249.69V252.228H367.723V249.69C369.338 249.69 370.145 248.537 370.145 246.461V228.121C369.914 226.39 368.415 225.468 365.531 225.352V222.584C368.415 222.584 370.606 222.584 372.337 222.469C373.836 222.353 376.143 222.007 379.257 221.661V228.121C381.795 223.853 384.909 221.661 388.716 221.661C391.484 221.661 392.984 222.93 393.214 225.583C393.214 228.121 391.599 229.62 388.6 229.851C386.294 229.851 384.679 229.043 383.756 227.659Z" fill="#FEFEFE"/>
<path d="M0.230692 19.8042L2.07623 19.5735C8.65096 18.8814 11.8807 22.8032 11.8807 27.8784V111.389C11.7653 117.041 7.15146 121.078 2.07623 121.078H0.115346L0 122.578H33.7964V121.078H31.8355C26.7603 121.078 22.1465 117.041 21.9158 111.389V19.9195C27.337 18.9967 32.4123 17.8433 36.5647 17.3819C54.7894 15.421 67.2468 24.072 67.9389 43.9115C68.4003 58.4451 62.4023 70.4411 50.637 72.6327C42.9088 74.0169 32.643 71.3639 30.1054 61.7902L28.7212 62.2516C30.336 74.8243 41.2939 78.9768 51.6751 78.4C69.3231 77.2466 80.1656 63.059 79.4735 43.9115C78.7814 20.9576 61.9409 9.53836 37.2568 12.6527C29.644 13.5755 13.7262 16.8052 0 18.3047L0.230692 19.8042Z" fill="#FEFEFE"/>
<path d="M127.918 121.077H125.957C120.536 121.077 116.153 116.809 116.037 111.388V25.8011C116.153 20.4952 120.536 16.112 125.957 16.112H127.918V14.6125H94.1216L94.2369 16.112H96.0825C101.504 16.112 105.887 20.4952 106.002 25.8011V111.388C105.887 116.809 101.504 121.077 96.0825 121.077H94.2369L94.1216 122.577H127.918V121.077Z" fill="#FEFEFE"/>
<path d="M221.927 14.6125V16.2274H224.464C228.847 16.2274 232.423 19.3417 232.538 23.6096V84.5123C232.538 105.736 218.812 119.924 198.165 119.924C178.556 119.924 165.407 104.929 165.407 82.4361V23.6096C165.638 19.2264 169.213 16.2274 173.597 16.2274H176.134V14.6125H144.76V16.2274H147.298C151.681 16.2274 155.372 19.3417 155.487 23.8402V84.743C155.487 108.735 172.558 124.768 198.165 124.768C223.195 124.768 239.805 108.62 239.805 84.5123V23.4942C240.036 19.2264 243.612 16.2274 247.995 16.2274H250.417V14.6125H221.927Z" fill="#FEFEFE"/>
<path d="M411.785 13.9219H410.401L369.453 105.737L332.657 26.1486C327.813 15.7674 313.279 -4.76419 287.326 1.00312V2.61796C305.782 0.195692 316.624 16.1135 323.083 28.8015L313.394 111.966C312.472 117.733 307.627 121.078 302.321 121.078H299.899V122.693H329.428V121.194H327.005C324.237 121.309 320.777 118.31 321.123 114.734L327.928 39.0673L367.376 124.77H368.761C369.799 118.426 374.066 109.198 374.066 109.198L405.787 37.5678L415.014 105.507C418.59 131.46 435.777 153.375 466.92 148.877V147.377C445.812 148.185 430.355 132.498 425.972 104.123L411.785 13.9219Z" fill="#FEFEFE"/>
<path d="M504.061 13.8071C469.457 13.8071 445.465 36.0689 445.465 69.2886C445.465 102.624 469.457 124.77 504.061 124.77C538.665 124.77 562.657 102.624 562.657 69.2886C562.657 36.0689 538.665 13.8071 504.061 13.8071ZM504.061 120.156C476.032 120.156 457.346 99.8554 457.346 69.2886C457.346 38.7219 476.032 18.421 504.061 18.421C532.09 18.421 550.892 38.7219 550.892 69.2886C550.892 99.8554 532.09 120.156 504.061 120.156Z" fill="#FEFEFE"/>
<path d="M594.726 50.0258C589.996 45.5273 588.612 39.8754 588.612 35.9536C588.612 26.6106 596.11 18.421 607.298 18.421C616.872 18.421 624.6 24.3036 624.485 34.1081H625.984V15.422H619.871C615.834 14.4992 610.874 13.8071 606.837 13.8071C589.535 13.8071 580.077 26.7259 580.077 39.5293C580.077 45.5273 582.153 52.7941 588.381 58.4461L617.564 85.5524C621.37 89.1282 623.562 93.8574 623.562 99.74C623.562 111.967 614.219 119.58 603.03 120.156C589.535 120.964 579.615 110.929 581.115 95.2415H579.731C577.424 102.047 576.847 111.736 578 116.465C583.998 122.694 596.34 124.77 603.838 124.77C621.37 124.77 632.328 113.12 632.328 96.2796C632.328 90.1663 630.829 83.3609 624.716 77.7089L594.726 50.0258Z" fill="#FEFEFE"/>
<path d="M667.279 50.0258C662.55 45.5273 661.165 39.8754 661.165 35.9536C661.165 26.6106 668.663 18.421 679.851 18.421C689.425 18.421 697.038 24.3036 697.038 34.1081H698.538V15.422H692.424C688.387 14.4992 683.427 13.8071 679.39 13.8071C662.088 13.8071 652.63 26.7259 652.63 39.5293C652.63 45.5273 654.706 52.7941 660.819 58.4461L690.117 85.5524C693.808 89.1282 696 93.8574 696 99.74C696 111.967 686.772 119.58 675.584 120.156C662.088 120.964 652.168 110.929 653.668 95.2415H652.284C649.977 102.047 649.4 111.736 650.554 116.465C656.552 122.694 668.894 124.77 676.391 124.77C693.924 124.77 704.882 113.12 704.882 96.2796C704.882 90.1663 703.382 83.3609 697.269 77.7089L667.279 50.0258Z" fill="#FEFEFE"/>
<path d="M778.355 13.8071C743.751 13.8071 719.875 36.0689 719.875 69.2886C719.875 102.624 743.751 124.77 778.355 124.77C812.959 124.77 836.951 102.624 836.951 69.2886C836.951 36.0689 812.959 13.8071 778.355 13.8071ZM778.355 120.156C750.326 120.156 731.64 99.8554 731.64 69.2886C731.64 38.7219 750.326 18.421 778.355 18.421C806.499 18.421 825.186 38.7219 825.186 69.2886C825.186 99.8554 806.499 120.156 778.355 120.156Z" fill="#FEFEFE"/>
<path d="M434.739 230.427H431.279C430.933 227.659 430.241 225.813 429.433 225.006C428.395 224.545 427.126 224.314 425.742 224.314C422.974 224.545 421.59 225.813 421.359 228.351C421.359 230.197 423.666 232.042 428.395 233.772C433.816 235.503 436.7 238.271 436.931 242.193C436.931 248.883 432.663 252.228 424.243 252.228C418.706 252.228 414.669 251.074 412.362 248.767V242.423H415.938C416.514 245.538 417.091 247.499 417.553 248.306C418.821 249.229 420.552 249.575 422.859 249.575C426.319 249.575 428.164 247.729 428.164 244.154C428.164 242.423 427.472 241.039 426.204 239.886C424.935 238.963 423.205 238.156 420.898 237.463C415.13 236.195 412.131 233.772 411.901 230.427C411.901 228.005 412.939 226.044 415.015 224.429C417.322 222.468 420.321 221.546 424.012 221.546C429.549 221.661 433.124 222.93 434.739 225.237V230.427Z" fill="#FEFEFE"/>
<path d="M458.732 235.272C453.311 236.656 450.543 239.194 450.543 242.885C450.773 246.806 452.388 248.652 455.502 248.652C456.771 248.652 457.809 248.191 458.732 247.153V235.272ZM455.502 221.546C463.577 221.546 467.844 224.775 467.96 231.004V247.268C467.96 248.075 468.306 248.537 469.113 248.537C469.805 248.537 470.382 248.191 471.074 247.614L471.997 249.575C470.497 251.19 468.421 252.112 465.884 252.228C462.308 252.228 460.001 251.305 459.194 249.459C457.694 251.305 454.81 252.228 450.543 252.228C444.66 251.766 441.776 249.113 441.661 244.269C441.661 239.078 444.199 236.079 449.389 235.272C454.464 234.464 457.694 233.311 458.847 231.811V227.89C458.617 225.698 457.925 224.545 457.117 224.545C456.079 224.545 455.502 225.121 455.272 226.275C454.926 227.544 454.234 228.697 453.196 229.735C452.157 230.658 450.889 231.119 449.389 231.119C446.967 231.004 445.813 229.851 445.813 227.313C445.813 225.698 446.736 224.314 448.236 223.276C450.658 222.122 453.08 221.546 455.502 221.546Z" fill="#FEFEFE"/>
<path d="M477.187 212.894C477.071 211.164 475.457 210.241 472.573 210.01V207.242C476.725 207.242 481.339 207.011 486.299 206.319V246.46C486.299 248.651 487.222 249.689 488.952 249.689V252.227H474.88V249.689C476.379 249.689 477.187 248.536 477.187 246.46V212.894Z" fill="#FEFEFE"/>
<path d="M509.947 225.006C505.679 225.006 503.487 228.928 503.487 236.771C503.603 244.846 505.794 248.883 510.177 248.883C514.445 248.883 516.521 244.846 516.521 236.887C516.521 228.928 514.33 225.006 509.947 225.006ZM510.062 221.546C520.558 221.546 525.749 226.736 525.749 237.002C525.749 247.153 520.558 252.228 510.062 252.228C499.45 252.228 494.26 247.153 494.26 237.002C494.26 226.736 499.45 221.546 510.062 221.546Z" fill="#FEFEFE"/>
<path d="M543.048 246.46C543.048 248.652 543.856 249.69 545.471 249.69V252.228H531.629V249.69C533.129 249.69 533.936 248.537 533.936 246.46V228.12C533.821 226.39 532.206 225.467 529.322 225.352V222.584C532.206 222.584 534.513 222.584 536.128 222.468C537.743 222.353 540.049 222.007 543.048 221.661V226.16C546.047 223.045 549.392 221.546 553.199 221.546C558.62 221.546 561.504 224.891 561.619 231.581V246.46C561.619 248.652 562.427 249.69 564.157 249.69V252.228H550.315V249.69C551.699 249.69 552.391 248.652 552.391 246.46V231.811C552.391 227.89 551.353 225.929 549.162 225.929C547.316 225.929 545.24 227.313 543.048 230.081V246.46Z" fill="#FEFEFE"/>
</svg>
