<svg width="55" height="620" viewBox="0 0 55 620" fill="none" xmlns="http://www.w3.org/2000/svg">
<path d="M1.22704 545.31L1.22704 563.47H3.75328L4.76378 555.855L44.0289 566.399L4.6916 578.921L3.75328 570.793H1.22704L1.22704 591.515H3.75328L4.61942 583.461L43.7402 596.202L4.61942 606.746L3.75328 599.204H1.22704L1.22704 620H3.75328L4.47507 613.117L54.4226 598.838V596.055L11.7651 582.655L54.4226 568.669V565.813L4.6916 552.34L3.75328 545.31H1.22704Z" fill="#446379"/>
<path d="M40.2034 465.065L50.5971 466.969V488.424C43.5958 488.643 36.5223 488.643 28.5105 488.643V475.756L36.0892 474.731V471.728H17.8281V474.731L25.6234 475.829V488.643C18.2612 488.643 11.1877 488.643 4.40289 488.424L4.40289 468.433L14.7966 466.456V462.868L1.22704 463.381L1.22704 502.556H3.75328L4.54725 494.941C11.4764 494.721 18.5499 494.721 25.5512 494.721H29.521C36.5945 494.721 43.5958 494.721 50.4528 494.941L51.2467 502.556H53.8451V461.916L40.2034 461.404V465.065Z" fill="#446379"/>
<path d="M39.4816 380.69L50.5971 383.033V402.364C43.7402 402.584 36.811 402.584 30.9646 402.584H25.9121C18.5499 402.584 11.4764 402.584 4.54725 402.364L3.75328 394.749H1.22704L1.22704 416.497H3.75328L4.54725 408.881C11.4042 408.662 18.4055 408.662 25.5512 408.662H29.5932C36.5223 408.662 43.5236 408.662 50.4528 408.881L51.2467 416.497H53.8451V377.468L39.4816 376.809V380.69Z" fill="#446379"/>
<path d="M39.6982 293.55L49.5144 295.307C51.1024 298.603 51.752 302.044 51.752 305.413C51.752 317.055 43.0905 325.33 27.5 325.33C12.0538 325.33 3.24803 316.543 3.24803 304.9C3.24803 301.971 3.89764 299.042 5.48557 296.04L15.2297 294.282V290.255L3.89764 290.548C0.866144 295.747 0 300.946 0 305.705C0 321.156 11.5486 332.506 27.5 332.506C43.668 332.506 55 321.669 55 305.705C55 300.067 53.9173 294.795 51.1024 289.816L39.6982 289.596V293.55Z" fill="#446379"/>
<path d="M27.5 236.696C15.0853 236.696 3.24803 231.277 3.24803 219.708C3.24803 208.285 15.0853 202.866 27.5 202.866C39.9869 202.866 51.8241 208.285 51.8241 219.708C51.8241 231.277 39.9869 236.696 27.5 236.696ZM0 219.708C0 232.229 10.4659 243.872 27.5 243.872C45.1115 243.872 55 232.302 55 219.708C55 207.259 44.6063 195.763 27.5 195.763C9.88845 195.763 0 207.259 0 219.708Z" fill="#446379"/>
<path d="M3.75328 86.8094H1.22704L1.22704 101.308L45.9777 119.321L1.22704 137.994L1.22704 151.614H3.75328L4.61942 144.218L50.3806 144.291L51.2467 151.394H53.8451V133.747H51.2467L50.3806 140.849H24.7572C24.685 140.849 15.1575 141.069 8.30052 141.216L53.8451 122.031V119.028L8.01181 100.576L29.7375 100.649C36.5945 100.722 43.5958 100.649 50.5249 100.795L51.2467 107.971H53.8451L53.8451 86.8094H51.2467L50.5249 94.4248C43.5236 94.5712 36.5223 94.5713 29.521 94.5713H25.5512C18.4055 94.5713 11.4042 94.5712 4.54725 94.4248L3.75328 86.8094Z" fill="#446379"/>
<path d="M40.2034 3.66119L50.5971 5.56506V27.02C43.5958 27.2396 36.5223 27.2397 28.5105 27.2397V14.3521L36.0892 13.3269V10.3247H17.8281L17.8281 13.3269L25.6234 14.4253V27.2397C18.2612 27.2397 11.1877 27.2396 4.40289 27.02L4.40289 7.02954L14.7966 5.05249V1.46448L1.22704 1.97705L1.22704 41.1525H3.75328L4.54725 33.537C11.4764 33.3174 18.5499 33.3174 25.5512 33.3174H29.521C36.5945 33.3174 43.5958 33.3174 50.4528 33.537L51.2467 41.1525H53.8451V0.512573L40.2034 0V3.66119Z" fill="#446379"/>
</svg>
